<?xml version="1.0" encoding="iso-8859-1"?>
<!-- Generator: Adobe Illustrator 19.0.0, SVG Export Plug-In . SVG Version: 6.00 Build 0)  -->
<svg version="1.1" id="Layer_1" fill="#d55342" xmlns="http://www.w3.org/2000/svg" xmlns:xlink="http://www.w3.org/1999/xlink" x="0px" y="0px"
	 viewBox="0 0 511.999 511.999" style="enable-background:new 0 0 511.999 511.999;" xml:space="preserve">
<g>
	<g>
		<path d="M509.07,194.061L414.3,99.29c-3.906-3.905-10.24-3.906-14.148,0c-3.906,3.906-3.906,10.24,0,14.148l87.697,87.696
			l-51.274,51.273c-1.571,1.57-4.126,1.57-5.695,0l-101.25-101.249c-1.571-1.57-1.571-4.125,0-5.696l34.411-34.413
			c3.906-3.906,3.906-10.24,0-14.147c-3.907-3.906-10.239-3.906-14.148,0l-34.411,34.411c-7.128,7.129-8.818,17.655-5.1,26.412
			l-11.638,11.638h-44.877h-3.537h-32.955l-14.682-14.682c0.564-2.058,0.862-4.201,0.862-6.392c0-6.42-2.501-12.456-7.04-16.995
			l-33.481-33.481c-3.907-3.906-10.239-3.906-14.148,0c-3.906,3.906-3.906,10.24,0,14.148l33.482,33.481
			c1.026,1.026,1.18,2.225,1.18,2.847s-0.153,1.821-1.181,2.848l-2.786,2.786l-98.495,98.471c-0.032,0.032-0.059,0.067-0.09,0.099
			c-0.998,0.923-2.128,1.073-2.727,1.073c-0.623,0-1.822-0.153-2.848-1.179L24.15,201.114l88.876-88.875
			c3.906-3.906,3.906-10.24,0-14.147s-10.238-3.906-14.148,0L2.93,194.041c-3.906,3.906-3.906,10.24,0,14.147l58.346,58.347
			c4.687,4.686,10.841,7.028,16.995,7.028c2.826,0,5.646-0.518,8.329-1.507l32.843,32.843c-2.55,4.784-4,10.237-4,16.025
			c0,18.853,15.338,34.191,34.191,34.191c0.042,0,0.084-0.003,0.126-0.003c0,0.002,0,0.004,0,0.006
			c0,18.811,15.269,34.119,34.064,34.188c0,0.015-0.001,0.029-0.001,0.044c0,18.853,15.338,34.191,34.191,34.191
			c5.8,0,11.265-1.456,16.055-4.015l12.227,12.227c5.732,5.732,13.354,8.889,21.46,8.889c8.107,0,15.729-3.157,21.46-8.889
			c5.427-5.427,8.546-12.548,8.862-20.171c7.393-0.368,14.678-3.368,20.311-9.002c5.952-5.952,9.166-13.866,9.051-22.282
			c0-0.018-0.001-0.035-0.001-0.053c8.703-0.54,16.71-4.354,22.63-10.805c5.951-6.482,8.896-14.656,8.87-22.81
			c8.37-0.241,16.201-3.613,22.146-9.559c6.202-6.201,9.603-14.447,9.573-23.218c-0.017-5.164-1.229-10.132-3.49-14.608l32.81-30
			c4.115,2.876,8.927,4.335,13.749,4.335c6.154,0,12.309-2.343,16.995-7.027l58.346-58.347
			C512.976,204.301,512.976,197.967,509.07,194.061z M149.635,335.11c-7.822,0-14.185-6.363-14.185-14.185
			c0-7.821,6.363-14.184,14.185-14.184c7.822,0,14.185,6.363,14.185,14.184C163.819,328.747,157.456,335.11,149.635,335.11z
			 M194.516,364.551c-0.407,0.386-0.804,0.781-1.192,1.186c-2.503,2.212-5.779,3.567-9.373,3.567
			c-7.821,0-14.184-6.363-14.184-14.185s6.362-14.185,14.184-14.185s14.185,6.363,14.185,14.185
			C198.135,358.743,196.758,362.042,194.516,364.551z M228.18,399.225c-0.046,0.044-0.095,0.082-0.14,0.127
			c-0.05,0.05-0.091,0.104-0.139,0.154c-2.557,2.491-6.043,4.032-9.885,4.032c-7.823-0.002-14.186-6.365-14.186-14.186
			c0-3.623,1.376-6.922,3.619-9.431c0.407-0.386,0.804-0.781,1.192-1.186c2.502-2.212,5.779-3.566,9.373-3.566
			c7.821,0,14.185,6.363,14.185,14.185C232.199,393.19,230.663,396.669,228.18,399.225z M366.94,322.927
			c-2.395,2.394-5.577,3.712-8.963,3.712s-6.568-1.318-8.963-3.711l-20.782-20.783c-3.906-3.906-10.238-3.906-14.148,0
			c-3.906,3.906-3.906,10.24,0,14.147l20.781,20.782c0.001,0,0.002,0.001,0.002,0.001l0.063,0.063
			c5.157,5.156,5.333,13.402,0.401,18.774c-2.478,2.7-5.859,4.257-9.522,4.385c-3.655,0.135-7.145-1.188-9.805-3.707l-20.011-18.942
			c-4.013-3.798-10.344-3.625-14.142,0.388c-3.798,4.012-3.625,10.343,0.387,14.142l21.787,20.625
			c2.157,2.042,3.367,4.802,3.408,7.772c0.041,2.97-1.093,5.762-3.193,7.862c-4.251,4.253-11.173,4.252-15.424,0l-10.101-10.101
			c-3.907-3.906-10.239-3.906-14.148,0c-1.953,1.954-2.93,4.513-2.93,7.073s0.977,5.121,2.93,7.073l10.5,10.5
			c1.954,1.954,3.03,4.551,3.03,7.313s-1.076,5.36-3.03,7.313c-1.954,1.954-4.551,3.029-7.313,3.029
			c-2.763,0-5.359-1.076-7.313-3.03l-12.235-12.235c2.548-4.782,3.997-10.233,3.997-16.019c0-18.811-15.27-34.119-34.065-34.188
			c0-0.015,0.001-0.029,0.001-0.044c0-18.853-15.338-34.191-34.191-34.191c-0.042,0-0.083,0.003-0.125,0.003
			c0-0.002,0-0.004,0-0.006c0-18.853-15.338-34.19-34.191-34.19c-5.798,0-11.261,1.455-16.049,4.012l-31.265-31.264l88.44-88.441
			l15.399,15.4c1.877,1.876,4.421,2.93,7.073,2.93h12.948l-39.486,39.486c-6.037,6.037-9.361,14.065-9.361,22.603
			c0,8.538,3.324,16.565,9.361,22.602c6.037,6.038,14.065,9.362,22.603,9.362s16.566-3.325,22.603-9.362l33.491-33.492l36.665,0.402
			l64.825,63.967c2.422,2.39,3.762,5.58,3.772,8.982C370.665,317.322,369.346,320.52,366.94,322.927z M374.169,284.024
			l-60.938-60.131c-0.001-0.001-0.002-0.002-0.003-0.003l-0.088-0.087c-2.25-2.221-5.287-3.151-8.201-2.808l-43.539-0.477
			c-2.7-0.02-5.28,1.027-7.183,2.929l-36.467,36.468c-2.259,2.259-5.262,3.502-8.455,3.502s-6.196-1.243-8.455-3.502
			c-2.259-2.258-3.502-5.261-3.502-8.455c0-3.194,1.243-6.197,3.502-8.456l53.633-53.633h48.416c2.653,0,5.197-1.054,7.073-2.93
			l13.328-13.328l82.237,82.237L374.169,284.024z"/>
	</g>
</g>
<g>
	<g>
		<circle cx="438.336" cy="205.74" r="9.983"/>
	</g>
</g>
<g>
	<g>
		<circle cx="72.644" cy="206.74" r="9.983"/>
	</g>
</g>
<g>
	<g>
		<circle cx="131.064" cy="82.139" r="9.983"/>
	</g>
</g>
<g>
	<g>
		<circle cx="380.757" cy="81.338" r="9.983"/>
	</g>
</g>
<g>
</g>
<g>
</g>
<g>
</g>
<g>
</g>
<g>
</g>
<g>
</g>
<g>
</g>
<g>
</g>
<g>
</g>
<g>
</g>
<g>
</g>
<g>
</g>
<g>
</g>
<g>
</g>
<g>
</g>
</svg>
