<?xml version="1.0"?>
<svg xmlns="http://www.w3.org/2000/svg" fill="#4777ce" viewBox="0 0 64 64"><g id="Calendar-office-schedule-2" data-name="Calendar-office-schedule"><path d="M55.293,42.293,45,52.586l-4.293-4.293-1.414,1.414,5,5a1,1,0,0,0,1.414,0l11-11Z"/><path d="M59,39.37V8a1,1,0,0,0-1-1H54V5a3.009,3.009,0,0,0-3-3H49a3.009,3.009,0,0,0-3,3V7H18V5a3.009,3.009,0,0,0-3-3H13a3.009,3.009,0,0,0-3,3V7H6A1,1,0,0,0,5,8V57a1,1,0,0,0,1,1H38.22A13.982,13.982,0,0,0,59,39.37ZM48,5a1,1,0,0,1,1-1h2a1,1,0,0,1,1,1V9a1,1,0,0,1-1,1H49a1,1,0,0,1-1-1ZM12,5a1,1,0,0,1,1-1h2a1,1,0,0,1,1,1V9a1,1,0,0,1-1,1H13a1,1,0,0,1-1-1ZM7,9h3a3.009,3.009,0,0,0,3,3h2a3.009,3.009,0,0,0,3-3H46a3.009,3.009,0,0,0,3,3h2a3.009,3.009,0,0,0,3-3h3v7H7ZM7,56V18H57V37.29a14.044,14.044,0,0,0-2-1.4V22a1,1,0,0,0-1-1H10a1,1,0,0,0-1,1V52a1,1,0,0,0,1,1H34.94a13.665,13.665,0,0,0,1.59,3ZM41,31V23H53v8Zm12,2v1.94a13.85,13.85,0,0,0-12,.95V33ZM34.33,51H25V44h9.59A13.922,13.922,0,0,0,34,48,14.142,14.142,0,0,0,34.33,51ZM25,42V33H39v4.29A14.086,14.086,0,0,0,35.37,42Zm0-11V23H39v8ZM11,42V33H23v9Zm12,2v7H11V44ZM11,31V23H23v8ZM48,60A12,12,0,1,1,60,48,12.01,12.01,0,0,1,48,60Z"/></g></svg>
